<?xml version="1.0" encoding="UTF-8" standalone="no"?><svg xmlns="http://www.w3.org/2000/svg" xmlns:xlink="http://www.w3.org/1999/xlink" contentStyleType="text/css" height="500.7741px" preserveAspectRatio="none" style="width:569px;height:500px;background:#FFFFFF;" version="1.1" viewBox="0 0 569 500" width="569.5078px" zoomAndPan="magnify"><defs/><g><ellipse cx="283.8612" cy="17.8529" fill="#F1F1F1" rx="8.9265" ry="8.9265" style="stroke:#181818;stroke-width:0.4463227192211668;"/><path d="M284.7661,18.0168 L283.4481,14.6798 L282.1248,18.0168 Z M285.9272,20.9772 L285.0852,18.8327 L281.8057,18.8327 L280.9532,20.9772 L279.9333,20.9772 L283.0035,13.2363 L284.0914,13.2363 L287.1145,20.9772 Z " fill="#000000"/><polygon fill="#F1F1F1" points="191.0261,83.9087,376.6964,83.9087,387.4081,94.6204,376.6964,105.3322,191.0261,105.3322,180.3144,94.6204,191.0261,83.9087" style="stroke:#181818;stroke-width:0.4463227192211668;"/><text fill="#000000" font-family="sans-serif" font-size="9.8191" lengthAdjust="spacing" textLength="185.6703" x="191.0261" y="98.3313">Лицензия выдана руками(назначена)?</text><text fill="#000000" font-family="sans-serif" font-size="9.8191" lengthAdjust="spacing" textLength="12.497" x="387.4081" y="92.5492">no</text><polygon fill="#F1F1F1" points="129.8799,164.2468,437.8426,164.2468,448.5543,174.9585,437.8426,185.6703,129.8799,185.6703,119.1682,174.9585,129.8799,164.2468" style="stroke:#181818;stroke-width:0.4463227192211668;"/><text fill="#000000" font-family="sans-serif" font-size="9.8191" lengthAdjust="spacing" textLength="307.9627" x="129.8799" y="178.6694">Лицензия находится в правиле под которое попал сотрудник?</text><text fill="#000000" font-family="sans-serif" font-size="9.8191" lengthAdjust="spacing" textLength="12.497" x="448.5543" y="172.8873">no</text><polygon fill="#F1F1F1" points="103.1005,244.5849,464.622,244.5849,475.3337,255.2966,464.622,266.0083,103.1005,266.0083,92.3888,255.2966,103.1005,244.5849" style="stroke:#181818;stroke-width:0.4463227192211668;"/><text fill="#000000" font-family="sans-serif" font-size="9.8191" lengthAdjust="spacing" textLength="361.5214" x="103.1005" y="259.0075">Подана заявка на лицензию и она ожидает апрува от рукля/супервизора?</text><text fill="#000000" font-family="sans-serif" font-size="9.8191" lengthAdjust="spacing" textLength="12.497" x="475.3337" y="253.2254">no</text><polygon fill="#F1F1F1" points="173.6195,324.9229,394.103,324.9229,404.8147,335.6347,394.103,346.3464,173.6195,346.3464,162.9078,335.6347,173.6195,324.9229" style="stroke:#181818;stroke-width:0.4463227192211668;"/><text fill="#000000" font-family="sans-serif" font-size="9.8191" lengthAdjust="spacing" textLength="220.4834" x="173.6195" y="339.3456">Лицензия ожидает активацию/деактивацию?</text><text fill="#000000" font-family="sans-serif" font-size="9.8191" lengthAdjust="spacing" textLength="12.497" x="404.8147" y="333.5635">no</text><rect fill="#F1F1F1" height="30.4685" rx="11.1581" ry="11.1581" style="stroke:#181818;stroke-width:0.4463227192211668;" width="303.4994" x="132.1115" y="405.261"/><text fill="#000000" font-family="sans-serif" font-size="10.7117" lengthAdjust="spacing" textLength="285.6465" x="141.038" y="424.5436">меняем статус лицензии на "Ожидает деактивации"</text><polygon fill="#F1F1F1" points="42.847,44.6323,524.8755,44.6323,535.5873,55.344,524.8755,66.0558,42.847,66.0558,32.1352,55.344,42.847,44.6323" style="stroke:#181818;stroke-width:0.4463227192211668;"/><text fill="#000000" font-family="sans-serif" font-size="9.8191" lengthAdjust="spacing" textLength="482.0285" x="42.847" y="59.0549">Собираем массив персональных лицензий для отъема перебирая массив уже выданных лицензий</text><ellipse cx="283.8612" cy="482.1471" fill="#F1F1F1" rx="8.9265" ry="8.9265" style="stroke:#181818;stroke-width:0.4463227192211668;"/><path d="M284.7661,482.311 L283.4481,478.974 L282.1248,482.311 Z M285.9272,485.2714 L285.0852,483.1269 L281.8057,483.1269 L280.9532,485.2714 L279.9333,485.2714 L283.0035,477.5304 L284.0914,477.5304 L287.1145,485.2714 Z " fill="#000000"/><line style="stroke:#181818;stroke-width:0.8926454384423336;" x1="283.8612" x2="283.8612" y1="105.3322" y2="123.1851"/><line style="stroke:#181818;stroke-width:0.8926454384423336;" x1="283.8612" x2="21.4235" y1="123.1851" y2="123.1851"/><polygon fill="#181818" points="30.3499,119.6145,21.4235,123.1851,30.3499,126.7557,26.7794,123.1851" style="stroke:#181818;stroke-width:0.8926454384423336;"/><line style="stroke:#181818;stroke-width:0.8926454384423336;" x1="387.4081" x2="398.1199" y1="94.6204" y2="94.6204"/><polygon fill="#181818" points="394.5493,114.2586,398.1199,123.1851,401.6904,114.2586,398.1199,117.8292" style="stroke:#181818;stroke-width:0.8926454384423336;"/><line style="stroke:#181818;stroke-width:0.8926454384423336;" x1="398.1199" x2="398.1199" y1="94.6204" y2="146.3939"/><line style="stroke:#181818;stroke-width:0.8926454384423336;" x1="398.1199" x2="283.8612" y1="146.3939" y2="146.3939"/><line style="stroke:#181818;stroke-width:0.8926454384423336;" x1="283.8612" x2="283.8612" y1="146.3939" y2="164.2468"/><polygon fill="#181818" points="280.2907,155.3203,283.8612,164.2468,287.4318,155.3203,283.8612,158.8909" style="stroke:#181818;stroke-width:0.8926454384423336;"/><line style="stroke:#181818;stroke-width:0.8926454384423336;" x1="283.8612" x2="283.8612" y1="185.6703" y2="203.5232"/><line style="stroke:#181818;stroke-width:0.8926454384423336;" x1="283.8612" x2="21.4235" y1="203.5232" y2="203.5232"/><polygon fill="#181818" points="30.3499,199.9526,21.4235,203.5232,30.3499,207.0937,26.7794,203.5232" style="stroke:#181818;stroke-width:0.8926454384423336;"/><line style="stroke:#181818;stroke-width:0.8926454384423336;" x1="448.5543" x2="459.2661" y1="174.9585" y2="174.9585"/><polygon fill="#181818" points="455.6955,194.5967,459.2661,203.5232,462.8367,194.5967,459.2661,198.1673" style="stroke:#181818;stroke-width:0.8926454384423336;"/><line style="stroke:#181818;stroke-width:0.8926454384423336;" x1="459.2661" x2="459.2661" y1="174.9585" y2="226.7319"/><line style="stroke:#181818;stroke-width:0.8926454384423336;" x1="459.2661" x2="283.8612" y1="226.7319" y2="226.7319"/><line style="stroke:#181818;stroke-width:0.8926454384423336;" x1="283.8612" x2="283.8612" y1="226.7319" y2="244.5849"/><polygon fill="#181818" points="280.2907,235.6584,283.8612,244.5849,287.4318,235.6584,283.8612,239.229" style="stroke:#181818;stroke-width:0.8926454384423336;"/><line style="stroke:#181818;stroke-width:0.8926454384423336;" x1="283.8612" x2="283.8612" y1="266.0083" y2="283.8612"/><line style="stroke:#181818;stroke-width:0.8926454384423336;" x1="283.8612" x2="21.4235" y1="283.8612" y2="283.8612"/><polygon fill="#181818" points="30.3499,280.2907,21.4235,283.8612,30.3499,287.4318,26.7794,283.8612" style="stroke:#181818;stroke-width:0.8926454384423336;"/><line style="stroke:#181818;stroke-width:0.8926454384423336;" x1="475.3337" x2="486.0454" y1="255.2966" y2="255.2966"/><polygon fill="#181818" points="482.4749,274.9348,486.0454,283.8612,489.616,274.9348,486.0454,278.5054" style="stroke:#181818;stroke-width:0.8926454384423336;"/><line style="stroke:#181818;stroke-width:0.8926454384423336;" x1="486.0454" x2="486.0454" y1="255.2966" y2="307.07"/><line style="stroke:#181818;stroke-width:0.8926454384423336;" x1="486.0454" x2="283.8612" y1="307.07" y2="307.07"/><line style="stroke:#181818;stroke-width:0.8926454384423336;" x1="283.8612" x2="283.8612" y1="307.07" y2="324.9229"/><polygon fill="#181818" points="280.2907,315.9965,283.8612,324.9229,287.4318,315.9965,283.8612,319.5671" style="stroke:#181818;stroke-width:0.8926454384423336;"/><line style="stroke:#181818;stroke-width:0.8926454384423336;" x1="283.8612" x2="283.8612" y1="346.3464" y2="364.1993"/><line style="stroke:#181818;stroke-width:0.8926454384423336;" x1="283.8612" x2="21.4235" y1="364.1993" y2="364.1993"/><polygon fill="#181818" points="30.3499,360.6288,21.4235,364.1993,30.3499,367.7699,26.7794,364.1993" style="stroke:#181818;stroke-width:0.8926454384423336;"/><line style="stroke:#181818;stroke-width:0.8926454384423336;" x1="404.8147" x2="415.5265" y1="335.6347" y2="335.6347"/><polygon fill="#181818" points="411.9559,355.2729,415.5265,364.1993,419.097,355.2729,415.5265,358.8435" style="stroke:#181818;stroke-width:0.8926454384423336;"/><line style="stroke:#181818;stroke-width:0.8926454384423336;" x1="415.5265" x2="415.5265" y1="335.6347" y2="387.4081"/><line style="stroke:#181818;stroke-width:0.8926454384423336;" x1="415.5265" x2="283.8612" y1="387.4081" y2="387.4081"/><line style="stroke:#181818;stroke-width:0.8926454384423336;" x1="283.8612" x2="283.8612" y1="387.4081" y2="405.261"/><polygon fill="#181818" points="280.2907,396.3346,283.8612,405.261,287.4318,396.3346,283.8612,399.9052" style="stroke:#181818;stroke-width:0.8926454384423336;"/><line style="stroke:#181818;stroke-width:0.8926454384423336;" x1="283.8612" x2="283.8612" y1="66.0558" y2="83.9087"/><polygon fill="#181818" points="280.2907,74.9822,283.8612,83.9087,287.4318,74.9822,283.8612,78.5528" style="stroke:#181818;stroke-width:0.8926454384423336;"/><line style="stroke:#181818;stroke-width:0.8926454384423336;" x1="283.8612" x2="283.8612" y1="435.7295" y2="444.656"/><line style="stroke:#181818;stroke-width:0.8926454384423336;" x1="283.8612" x2="546.299" y1="444.656" y2="444.656"/><polygon fill="#181818" points="542.7284,258.0338,546.299,249.1074,549.8696,258.0338,546.299,254.4632" style="stroke:#181818;stroke-width:0.8926454384423336;"/><line style="stroke:#181818;stroke-width:0.8926454384423336;" x1="546.299" x2="546.299" y1="55.344" y2="444.656"/><line style="stroke:#181818;stroke-width:0.8926454384423336;" x1="546.299" x2="535.5873" y1="55.344" y2="55.344"/><polygon fill="#181818" points="544.5137,51.7734,535.5873,55.344,544.5137,58.9146,540.9431,55.344" style="stroke:#181818;stroke-width:0.8926454384423336;"/><line style="stroke:#181818;stroke-width:0.8926454384423336;" x1="32.1352" x2="21.4235" y1="55.344" y2="55.344"/><polygon fill="#181818" points="17.8529,245.5368,21.4235,254.4632,24.9941,245.5368,21.4235,249.1074" style="stroke:#181818;stroke-width:0.8926454384423336;"/><line style="stroke:#181818;stroke-width:0.8926454384423336;" x1="21.4235" x2="21.4235" y1="55.344" y2="455.3677"/><line style="stroke:#181818;stroke-width:0.8926454384423336;" x1="21.4235" x2="283.8612" y1="455.3677" y2="455.3677"/><line style="stroke:#181818;stroke-width:0.8926454384423336;" x1="283.8612" x2="283.8612" y1="455.3677" y2="473.2206"/><polygon fill="#181818" points="280.2907,464.2942,283.8612,473.2206,287.4318,464.2942,283.8612,467.8648" style="stroke:#181818;stroke-width:0.8926454384423336;"/><line style="stroke:#181818;stroke-width:0.8926454384423336;" x1="283.8612" x2="283.8612" y1="26.7794" y2="44.6323"/><polygon fill="#181818" points="280.2907,35.7058,283.8612,44.6323,287.4318,35.7058,283.8612,39.2764" style="stroke:#181818;stroke-width:0.8926454384423336;"/><!--MD5=[d9627a479afbefdb98dda399efb0d47e]
@startuml CalculatePersonalLicences_2
skinparam ConditionEndStyle hline
scale max 500 height
    (A)
    while (Собираем массив персональных лицензий для отъема перебирая массив уже выданных лицензий)
        if (Лицензия выдана руками(назначена)?) then (no)
        else
            break
        endif
        if (Лицензия находится в правиле под которое попал сотрудник?) then (no)
        else
            break
        endif
        if (Подана заявка на лицензию и она ожидает апрува от рукля/супервизора?) then (no)
        else
            break
        endif
        if (Лицензия ожидает активацию/деактивацию?) then (no)
        else
            break
        endif
        :меняем статус лицензии на "Ожидает деактивации";
    endwhile
    (A)
@enduml

PlantUML version 1.2022.7(Mon Aug 22 20:01:30 MSK 2022)
(GPL source distribution)
Java Runtime: OpenJDK Runtime Environment
JVM: OpenJDK 64-Bit Server VM
Default Encoding: UTF-8
Language: en
Country: RU
--></g></svg>